# xmcd CD database file
#
# Track frame offsets:
#	150
#	13206
#	28678
#	46439
#	66786
#	77714
#	90413
#	103316
#	127234
#	142248
#	154529
#	176357
#	192200
#	210704
#
# Disc length: 3015 seconds
#
# Revision: 0
# Processed by: cddbd v1.5.1PL2 Copyright (c) Steve Scherf et al.
# Submitted via: CDex 1.50
#
DISCID=c50bc50e
DTITLE=The Lavens - Sibling - Rematch
DYEAR=2006
DGENRE=Country
TTITLE0=How Do You Like Me Now
TTITLE1=You're Gonna Need Me
TTITLE2=Runaway
TTITLE3=Metro Sexual Blues
TTITLE4=Nervous
TTITLE5=Come Back To Bed
TTITLE6=You Think It's Love
TTITLE7=Mm Mm Mm
TTITLE8=Welcome Home
TTITLE9=Truck Song
TTITLE10=Tasha
TTITLE11=What Ever It Takes
TTITLE12=Time Passes By
TTITLE13=Tequila
EXTD=YEAR: 2006
EXTT0=
EXTT1=
EXTT2=
EXTT3=
EXTT4=
EXTT5=
EXTT6=
EXTT7=
EXTT8=
EXTT9=
EXTT10=
EXTT11=
EXTT12=
EXTT13=
PLAYORDER=
